# xmcd
#
# Track frame offsets: 
#        150
#        25822
#        47871
#        74096
#        97625
#        110343
#        128418
#        147515
#        166070
#        178536
#
# Disc length: 2572 seconds
#
# Revision: 0
# Processed by: cddbd v1.5.1PL0 Copyright (c) Steve Scherf et al.
# Submitted via: ExactAudioCopy v0.95a5
#
DISCID=7f0a0a0a
DTITLE=U.P. Wilson - The Good, The Bad And The Blues
DYEAR=1998
DGENRE=Blues
TTITLE0=Take It Easy
TTITLE1=Lonely Guy
TTITLE2=Walkin'
TTITLE3=Satch Wig
TTITLE4=Don't Give Me That
TTITLE5=The Good, The Bad And The Blues
TTITLE6=Bad Luck Woman
TTITLE7=Fat City
TTITLE8=Jazz P.
TTITLE9=Last Time
EXTD=
EXTT0=
EXTT1=
EXTT2=
EXTT3=
EXTT4=
EXTT5=
EXTT6=
EXTT7=
EXTT8=
EXTT9=
PLAYORDER=
